<svg width="20" height="20" viewBox="0 0 20 20" fill="none" xmlns="http://www.w3.org/2000/svg">
<path d="M19.2451 8.26129L11.0873 8.26089C10.7271 8.26089 10.4351 8.55285 10.4351 8.91308V11.5191C10.4351 11.8793 10.7271 12.1713 11.0872 12.1713H15.6812C15.1782 13.4768 14.2393 14.5701 13.0414 15.2648L15.0003 18.6558C18.1425 16.8385 20.0002 13.6499 20.0002 10.0804C20.0002 9.57218 19.9628 9.20886 19.8879 8.79976C19.8309 8.48894 19.5611 8.26129 19.2451 8.26129Z" fill="#167EE6"/>
<path d="M10.0001 16.0869C7.75185 16.0869 5.7892 14.8586 4.7351 13.0409L1.34424 14.9953C3.06982 17.986 6.3024 20 10.0001 20C11.814 20 13.5256 19.5116 15.0001 18.6605V18.6558L13.0412 15.2648C12.1452 15.7845 11.1083 16.0869 10.0001 16.0869Z" fill="#12B347"/>
<path d="M15 18.6605V18.6558L13.0411 15.2648C12.1451 15.7844 11.1083 16.0869 10 16.0869V20C11.8139 20 13.5256 19.5116 15 18.6605Z" fill="#0F993E"/>
<path d="M3.91305 10C3.91305 8.89185 4.21547 7.8551 4.73504 6.95912L1.34418 5.00467C0.488359 6.47447 0 8.18143 0 10C0 11.8186 0.488359 13.5256 1.34418 14.9954L4.73504 13.0409C4.21547 12.1449 3.91305 11.1082 3.91305 10Z" fill="#FFD500"/>
<path d="M10.0001 3.91305C11.4661 3.91305 12.8127 4.43398 13.8646 5.30051C14.1241 5.51426 14.5012 5.49883 14.7389 5.26113L16.5854 3.41465C16.8551 3.14496 16.8359 2.70351 16.5478 2.45359C14.7855 0.924726 12.4925 0 10.0001 0C6.3024 0 3.06982 2.01394 1.34424 5.00465L4.7351 6.9591C5.7892 5.1414 7.75185 3.91305 10.0001 3.91305Z" fill="#FF4B26"/>
<path d="M13.8645 5.30051C14.124 5.51426 14.5012 5.49883 14.7389 5.26113L16.5853 3.41465C16.855 3.14496 16.8358 2.70351 16.5477 2.45359C14.7854 0.924687 12.4925 0 10 0V3.91305C11.466 3.91305 12.8127 4.43398 13.8645 5.30051Z" fill="#D93F21"/>
</svg>
